<mxfile host="65bd71144e">
    <diagram id="-qYkIB1QTB8TOd8kgkfm" name="Page-1">
        <mxGraphModel dx="1216" dy="792" grid="1" gridSize="10" guides="1" tooltips="1" connect="1" arrows="1" fold="1" page="1" pageScale="1" pageWidth="850" pageHeight="1100" background="#18141D" math="0" shadow="0">
            <root>
                <mxCell id="0"/>
                <mxCell id="1" parent="0"/>
                <mxCell id="6" style="edgeStyle=none;html=1;entryX=0;entryY=0.5;entryDx=0;entryDy=0;fillColor=#18141D;strokeColor=#F0F0F0;fontColor=#F0F0F0;labelBackgroundColor=#18141D;" parent="1" source="2" target="5" edge="1">
                    <mxGeometry relative="1" as="geometry"/>
                </mxCell>
                <mxCell id="33" value="Umów wizytę" style="edgeLabel;html=1;align=center;verticalAlign=middle;resizable=0;points=[];fontColor=#F0F0F0;fillColor=#18141D;labelBackgroundColor=#18141D;" vertex="1" connectable="0" parent="6">
                    <mxGeometry x="-0.5455" y="-5" relative="1" as="geometry">
                        <mxPoint x="25" y="-20" as="offset"/>
                    </mxGeometry>
                </mxCell>
                <mxCell id="2" value="" style="ellipse;fillColor=#F0F0F0;strokeColor=#F0F0F0;fontColor=#F0F0F0;labelBackgroundColor=#18141D;" parent="1" vertex="1">
                    <mxGeometry x="170" y="195" width="30" height="30" as="geometry"/>
                </mxCell>
                <mxCell id="3" value="" style="ellipse;html=1;shape=endState;fillColor=#F0F0F0;strokeColor=#F0F0F0;fontColor=#F0F0F0;labelBackgroundColor=#18141D;" parent="1" vertex="1">
                    <mxGeometry x="500" y="455" width="30" height="30" as="geometry"/>
                </mxCell>
                <mxCell id="35" style="edgeStyle=none;html=1;exitX=0.5;exitY=1;exitDx=0;exitDy=0;entryX=0.5;entryY=0;entryDx=0;entryDy=0;labelBackgroundColor=#18141D;strokeColor=#F0F0F0;fontColor=#F0F0F0;fillColor=#18141D;" edge="1" parent="1" source="5" target="18">
                    <mxGeometry relative="1" as="geometry"/>
                </mxCell>
                <mxCell id="48" value="Anulowanie wizyty" style="edgeLabel;html=1;align=center;verticalAlign=middle;resizable=0;points=[];fontColor=#F0F0F0;fillColor=#18141D;labelBackgroundColor=#18141D;" vertex="1" connectable="0" parent="35">
                    <mxGeometry x="-0.46" y="-2" relative="1" as="geometry">
                        <mxPoint x="2" y="26" as="offset"/>
                    </mxGeometry>
                </mxCell>
                <mxCell id="36" style="edgeStyle=none;html=1;exitX=1;exitY=0.5;exitDx=0;exitDy=0;entryX=0;entryY=0.5;entryDx=0;entryDy=0;labelBackgroundColor=#18141D;strokeColor=#F0F0F0;fontColor=#F0F0F0;fillColor=#18141D;" edge="1" parent="1" source="5" target="34">
                    <mxGeometry relative="1" as="geometry"/>
                </mxCell>
                <mxCell id="47" value="Pacjent przyjęty" style="edgeLabel;html=1;align=center;verticalAlign=middle;resizable=0;points=[];fontColor=#F0F0F0;fillColor=#18141D;labelBackgroundColor=#18141D;" vertex="1" connectable="0" parent="36">
                    <mxGeometry x="-0.2235" y="1" relative="1" as="geometry">
                        <mxPoint x="14" y="-14" as="offset"/>
                    </mxGeometry>
                </mxCell>
                <mxCell id="5" value="Wizyta umówiona" style="rounded=1;whiteSpace=wrap;html=1;fillColor=#18141D;strokeColor=#F0F0F0;fontColor=#F0F0F0;labelBackgroundColor=#18141D;" parent="1" vertex="1">
                    <mxGeometry x="310" y="180" width="120" height="60" as="geometry"/>
                </mxCell>
                <mxCell id="37" style="edgeStyle=none;html=1;exitX=1;exitY=0.5;exitDx=0;exitDy=0;entryX=0;entryY=0.5;entryDx=0;entryDy=0;labelBackgroundColor=#18141D;strokeColor=#F0F0F0;fontColor=#F0F0F0;fillColor=#18141D;" edge="1" parent="1" source="18" target="3">
                    <mxGeometry relative="1" as="geometry"/>
                </mxCell>
                <mxCell id="18" value="Wizyta anulowana" style="rounded=1;whiteSpace=wrap;html=1;fillColor=#18141D;strokeColor=#F0F0F0;fontColor=#F0F0F0;labelBackgroundColor=#18141D;" parent="1" vertex="1">
                    <mxGeometry x="310" y="440" width="120" height="60" as="geometry"/>
                </mxCell>
                <mxCell id="32" style="edgeStyle=none;html=1;exitX=0;exitY=0.5;exitDx=0;exitDy=0;entryX=1;entryY=0.5;entryDx=0;entryDy=0;fillColor=#18141D;strokeColor=#F0F0F0;fontColor=#F0F0F0;labelBackgroundColor=#18141D;" parent="1" source="29" target="3" edge="1">
                    <mxGeometry relative="1" as="geometry"/>
                </mxCell>
                <mxCell id="29" value="Odbyta wizyta" style="rounded=1;whiteSpace=wrap;html=1;fillColor=#18141D;strokeColor=#F0F0F0;fontColor=#F0F0F0;labelBackgroundColor=#18141D;" parent="1" vertex="1">
                    <mxGeometry x="600" y="440" width="120" height="60" as="geometry"/>
                </mxCell>
                <mxCell id="41" style="edgeStyle=none;html=1;exitX=0.25;exitY=1;exitDx=0;exitDy=0;entryX=0.75;entryY=0;entryDx=0;entryDy=0;labelBackgroundColor=#18141D;strokeColor=#F0F0F0;fontColor=#F0F0F0;fillColor=#18141D;" edge="1" parent="1" source="34" target="38">
                    <mxGeometry relative="1" as="geometry"/>
                </mxCell>
                <mxCell id="49" value="Przeprowadzenie badania" style="edgeLabel;html=1;align=center;verticalAlign=middle;resizable=0;points=[];fontColor=#F0F0F0;fillColor=#18141D;labelBackgroundColor=#18141D;" vertex="1" connectable="0" parent="41">
                    <mxGeometry x="-0.2634" y="5" relative="1" as="geometry">
                        <mxPoint x="-30" as="offset"/>
                    </mxGeometry>
                </mxCell>
                <mxCell id="42" style="edgeStyle=none;html=1;exitX=0.5;exitY=1;exitDx=0;exitDy=0;entryX=0.5;entryY=0;entryDx=0;entryDy=0;labelBackgroundColor=#18141D;strokeColor=#F0F0F0;fontColor=#F0F0F0;fillColor=#18141D;" edge="1" parent="1" source="34" target="29">
                    <mxGeometry relative="1" as="geometry"/>
                </mxCell>
                <mxCell id="51" value="Przeprowadzenie wizyty/badania&lt;br&gt;z natychmiastowymi wynikami" style="edgeLabel;html=1;align=center;verticalAlign=middle;resizable=0;points=[];fontColor=#F0F0F0;fillColor=#18141D;labelBackgroundColor=#18141D;" vertex="1" connectable="0" parent="42">
                    <mxGeometry x="-0.2" y="1" relative="1" as="geometry">
                        <mxPoint x="-1" y="20" as="offset"/>
                    </mxGeometry>
                </mxCell>
                <mxCell id="34" value="Trwająca wizyta" style="rounded=1;whiteSpace=wrap;html=1;labelBackgroundColor=#18141D;strokeColor=#F0F0F0;fontColor=#F0F0F0;fillColor=#18141D;" vertex="1" parent="1">
                    <mxGeometry x="600" y="180" width="120" height="60" as="geometry"/>
                </mxCell>
                <mxCell id="46" style="edgeStyle=none;html=1;exitX=0.75;exitY=1;exitDx=0;exitDy=0;entryX=0.25;entryY=0;entryDx=0;entryDy=0;labelBackgroundColor=#18141D;strokeColor=#F0F0F0;fontColor=#F0F0F0;fillColor=#18141D;" edge="1" parent="1" source="38" target="29">
                    <mxGeometry relative="1" as="geometry"/>
                </mxCell>
                <mxCell id="50" value="Otrzymanie wyników" style="edgeLabel;html=1;align=center;verticalAlign=middle;resizable=0;points=[];fontColor=#F0F0F0;fillColor=#18141D;labelBackgroundColor=#18141D;" vertex="1" connectable="0" parent="46">
                    <mxGeometry x="-0.2974" y="-1" relative="1" as="geometry">
                        <mxPoint as="offset"/>
                    </mxGeometry>
                </mxCell>
                <mxCell id="38" value="Oczekująca na wyniki" style="rounded=1;whiteSpace=wrap;html=1;labelBackgroundColor=#18141D;strokeColor=#F0F0F0;fontColor=#F0F0F0;fillColor=#18141D;" vertex="1" parent="1">
                    <mxGeometry x="450" y="320" width="120" height="60" as="geometry"/>
                </mxCell>
            </root>
        </mxGraphModel>
    </diagram>
</mxfile>